<?xml version="1.0" encoding="UTF-8" standalone="no"?>
<svg
   height="48"
   viewBox="0 -960 1536.0001 1920"
   width="38.400002"
   version="1.1"
   id="svg1"
   sodipodi:docname="location.svg"
   inkscape:version="1.3 (0e150ed, 2023-07-21)"
   xmlns:inkscape="http://www.inkscape.org/namespaces/inkscape"
   xmlns:sodipodi="http://sodipodi.sourceforge.net/DTD/sodipodi-0.dtd"
   xmlns="http://www.w3.org/2000/svg"
   xmlns:svg="http://www.w3.org/2000/svg">
  <defs
     id="defs1" />
  <sodipodi:namedview
     id="namedview1"
     pagecolor="#505050"
     bordercolor="#eeeeee"
     borderopacity="1"
     inkscape:showpageshadow="0"
     inkscape:pageopacity="0"
     inkscape:pagecheckerboard="0"
     inkscape:deskcolor="#505050"
     inkscape:zoom="14.359378"
     inkscape:cx="11.978235"
     inkscape:cy="19.255709"
     inkscape:window-width="1392"
     inkscape:window-height="1052"
     inkscape:window-x="0"
     inkscape:window-y="0"
     inkscape:window-maximized="0"
     inkscape:current-layer="svg1" />
  <path
     d="M 768,0 Q 847.2,0 903.6,-56.4 960,-112.8 960,-192 960,-271.2 903.6,-327.6 847.2,-384 768,-384 q -79.2,0 -135.6,56.4 -56.4,56.4 -56.4,135.6 0,79.2 56.4,135.6 Q 688.8,0 768,0 Z m 0,705.6 Q 1060.8,436.8 1202.4,217.2 1344,-2.4 1344,-172.8 1344,-434.4 1177.2,-601.2 1010.4,-768 768,-768 525.6,-768 358.8,-601.2 192,-434.4 192,-172.8 192,-2.4 333.6,217.2 475.2,436.8 768,705.6 Z M 768,960 Q 381.6,631.2 190.8,349.2 0,67.2 0,-172.8 0,-532.8 231.6,-746.4 463.2,-960 768,-960 q 304.8,0 536.4,213.6 231.6,213.6 231.6,573.6 0,240 -190.8,522 Q 1154.4,631.2 768,960 Z m 0,-1152 z"
     id="path1"
     style="stroke-width:1" />
</svg>
