<?xml version="1.0" encoding="UTF-8" standalone="no"?>
<svg
   height="43.200001"
   viewBox="0 -960 1920 1728"
   width="48"
   version="1.1"
   id="svg1"
   sodipodi:docname="phone.svg"
   inkscape:version="1.3 (0e150ed, 2023-07-21)"
   xmlns:inkscape="http://www.inkscape.org/namespaces/inkscape"
   xmlns:sodipodi="http://sodipodi.sourceforge.net/DTD/sodipodi-0.dtd"
   xmlns="http://www.w3.org/2000/svg"
   xmlns:svg="http://www.w3.org/2000/svg">
  <defs
     id="defs1" />
  <sodipodi:namedview
     id="namedview1"
     pagecolor="#505050"
     bordercolor="#eeeeee"
     borderopacity="1"
     inkscape:showpageshadow="0"
     inkscape:pageopacity="0"
     inkscape:pagecheckerboard="0"
     inkscape:deskcolor="#505050"
     inkscape:zoom="37.875"
     inkscape:cx="11.986799"
     inkscape:cy="12"
     inkscape:window-width="1392"
     inkscape:window-height="1052"
     inkscape:window-x="0"
     inkscape:window-y="0"
     inkscape:window-maximized="0"
     inkscape:current-layer="svg1" />
  <path
     d="M 864,768 V 576 h 768 V -105.6 Q 1632,-386.4 1436.4,-582 1240.8,-777.6 960,-777.6 679.2,-777.6 483.6,-582 288,-386.4 288,-105.6 V 480 H 192 Q 112.8,480 56.4,423.6 0,367.2 0,288 V 96 Q 0,45.6 25.2,1.2 50.4,-43.2 96,-69.6 l 7.2,-127.2 Q 122.4,-360 198,-499.2 273.6,-638.4 387.6,-741.6 501.6,-844.8 649.2,-902.4 796.8,-960 960,-960 q 163.2,0 309.6,57.6 146.4,57.6 261.6,159.6 115.2,102 189.6,241.2 74.4,139.2 96,302.4 l 7.2,124.8 q 45.6,21.6 70.8,64.8 25.2,43.2 25.2,91.2 v 220.8 q 0,48 -25.2,91.2 -25.2,43.2 -70.8,64.8 V 576 q 0,79.2 -56.4,135.6 Q 1711.2,768 1632,768 Z M 672,96 Q 631.2,96 603.6,68.4 576,40.8 576,0 576,-40.8 603.6,-68.4 631.2,-96 672,-96 q 40.8,0 68.4,27.6 Q 768,-40.8 768,0 768,40.8 740.4,68.4 712.8,96 672,96 Z m 576,0 Q 1207.2,96 1179.6,68.4 1152,40.8 1152,0 q 0,-40.8 27.6,-68.4 27.6,-27.6 68.4,-27.6 40.8,0 68.4,27.6 27.6,27.6 27.6,68.4 0,40.8 -27.6,68.4 Q 1288.8,96 1248,96 Z M 386.4,-52.8 Q 369.6,-307.2 540,-489.6 710.4,-672 964.8,-672 q 213.6,0 375.6,135.6 162,135.6 195.6,346.8 -218.4,-2.4 -402,-117.6 -183.6,-115.2 -282,-312 -38.4,192 -162,342 -123.6,150 -303.6,224.4 z"
     id="path1"
     style="stroke-width:1" />
</svg>
